<svg width="24" height="24" viewBox="0 0 24 24" fill="none" xmlns="http://www.w3.org/2000/svg">
  <!-- Background speech bubble (green) -->
  <path d="M16 8C16 6.89543 15.1046 6 14 6H8C6.89543 6 6 6.89543 6 8V12C6 13.1046 6.89543 14 8 14H10L12 18L14 14H16C17.1046 14 18 13.1046 18 12V8C18 6.89543 17.1046 6 16 6Z" fill="#98FB98"/>
  
  <!-- Foreground speech bubble (blue) -->
  <path d="M14 4C14 2.89543 13.1046 2 12 2H6C4.89543 2 4 2.89543 4 4V8C4 9.10457 4.89543 10 6 10H8L10 14L12 10H14C15.1046 10 16 9.10457 16 8V4C16 2.89543 15.1046 2 14 2Z" fill="#87CEEB"/>
  
  <!-- Typing dots -->
  <circle cx="8" cy="6" r="1.5" fill="white"/>
  <circle cx="10" cy="6" r="1.5" fill="white"/>
  <circle cx="12" cy="6" r="1.5" fill="white"/>
  
  <!-- Shadows for dots -->
  <circle cx="8.5" cy="6.5" r="1.5" fill="rgba(0,0,0,0.1)"/>
  <circle cx="10.5" cy="6.5" r="1.5" fill="rgba(0,0,0,0.1)"/>
  <circle cx="12.5" cy="6.5" r="1.5" fill="rgba(0,0,0,0.1)"/>
</svg> 